<svg width="190" height="102" viewBox="0 0 190 102" fill="none" xmlns="http://www.w3.org/2000/svg">
<g clip-path="url(#clip0)">
<path d="M0 87H15V90.2215H0V87Z" fill="black"/>
<path d="M0 92.8892H15V96.1107H0V92.8892Z" fill="black"/>
<path d="M0 98.7785H15V102H0V98.7785Z" fill="black"/>
<path d="M29 87H44V93H29V87Z" fill="black"/>
<path d="M29 96H44V102H29V96Z" fill="black"/>
<path d="M58 87H64V92.8572H58V87Z" fill="black"/>
<path d="M58 96.1429H64V102H58V96.1429Z" fill="black"/>
<path d="M67 87H73V92.8572H67V87Z" fill="black"/>
<path d="M67 96.1429H73V102H67V96.1429Z" fill="black"/>
<path d="M87 87H91.3548V91.3548H87V87Z" fill="black"/>
<path d="M87 92.3226H91.3548V96.6774H87V92.3226Z" fill="black"/>
<path d="M87 97.6451H91.3548V102H87V97.6451Z" fill="black"/>
<path d="M92.3225 87H96.6773V91.3548H92.3225V87Z" fill="black"/>
<path d="M92.3225 92.3226H96.6773V96.6774H92.3225V92.3226Z" fill="black"/>
<path d="M92.3225 97.6451H96.6773V102H92.3225V97.6451Z" fill="black"/>
<path d="M97.6453 87H102V91.3548H97.6453V87Z" fill="black"/>
<path d="M97.6453 92.3226H102V96.6774H97.6453V92.3226Z" fill="black"/>
<path d="M97.6453 97.6451H102V102H97.6453V97.6451Z" fill="black"/>
<path d="M116 87H118.848V89.8481H116V87Z" fill="black"/>
<path d="M116 91.0507H118.848V93.8988H116V91.0507Z" fill="black"/>
<path d="M116 95.1013H118.848V97.9494H116V95.1013Z" fill="black"/>
<path d="M116 99.1519H118.848V102H116V99.1519Z" fill="black"/>
<path d="M120.051 87H122.899V89.8481H120.051V87Z" fill="black"/>
<path d="M120.051 91.0507H122.899V93.8988H120.051V91.0507Z" fill="black"/>
<path d="M120.051 95.1013H122.899V97.9494H120.051V95.1013Z" fill="black"/>
<path d="M120.051 99.1519H122.899V102H120.051V99.1519Z" fill="black"/>
<path d="M124.101 87H126.949V89.8481H124.101V87Z" fill="black"/>
<path d="M124.101 91.0507H126.949V93.8988H124.101V91.0507Z" fill="black"/>
<path d="M124.101 95.1013H126.949V97.9494H124.101V95.1013Z" fill="black"/>
<path d="M124.101 99.1519H126.949V102H124.101V99.1519Z" fill="black"/>
<path d="M128.152 87H131V89.8481H128.152V87Z" fill="black"/>
<path d="M128.152 91.0507H131V93.8988H128.152V91.0507Z" fill="black"/>
<path d="M128.152 95.1013H131V97.9494H128.152V95.1013Z" fill="black"/>
<path d="M128.152 99.1519H131V102H128.152V99.1519Z" fill="black"/>
<path d="M145 87H147.143V89.1429H145V87Z" fill="black"/>
<path d="M145 90.2143H147.143V92.3572H145V90.2143Z" fill="black"/>
<path d="M145 93.4286H147.143V95.5714H145V93.4286Z" fill="black"/>
<path d="M145 96.6429H147.143V98.7857H145V96.6429Z" fill="black"/>
<path d="M148.214 87H150.357V89.1429H148.214V87Z" fill="black"/>
<path d="M148.214 90.2143H150.357V92.3572H148.214V90.2143Z" fill="black"/>
<path d="M148.214 93.4286H150.357V95.5714H148.214V93.4286Z" fill="black"/>
<path d="M148.214 96.6429H150.357V98.7857H148.214V96.6429Z" fill="black"/>
<path d="M151.428 87H153.571V89.1429H151.428V87Z" fill="black"/>
<path d="M151.428 90.2143H153.571V92.3572H151.428V90.2143Z" fill="black"/>
<path d="M151.428 93.4286H153.571V95.5714H151.428V93.4286Z" fill="black"/>
<path d="M151.428 96.6429H153.571V98.7857H151.428V96.6429Z" fill="black"/>
<path d="M154.643 87H156.786V89.1429H154.643V87Z" fill="black"/>
<path d="M154.643 90.2143H156.786V92.3572H154.643V90.2143Z" fill="black"/>
<path d="M154.643 93.4286H156.786V95.5714H154.643V93.4286Z" fill="black"/>
<path d="M154.643 96.6429H156.786V98.7857H154.643V96.6429Z" fill="black"/>
<path d="M145 99.8571H147.143V102H145V99.8571Z" fill="black"/>
<path d="M148.214 99.8571H150.357V102H148.214V99.8571Z" fill="black"/>
<path d="M151.428 99.8571H153.571V102H151.428V99.8571Z" fill="black"/>
<path d="M154.643 99.8571H156.786V102H154.643V99.8571Z" fill="black"/>
<path d="M157.857 87H160V89.1429H157.857V87Z" fill="black"/>
<path d="M157.857 90.2143H160V92.3572H157.857V90.2143Z" fill="black"/>
<path d="M157.857 93.4286H160V95.5714H157.857V93.4286Z" fill="black"/>
<path d="M157.857 96.6429H160V98.7857H157.857V96.6429Z" fill="black"/>
<path d="M157.857 99.8571H160V102H157.857V99.8571Z" fill="black"/>
<path d="M145 87H147.143V89.1429H145V87Z" fill="black"/>
<path d="M145 90.2143H147.143V92.3572H145V90.2143Z" fill="black"/>
<path d="M145 93.4286H147.143V95.5714H145V93.4286Z" fill="black"/>
<path d="M145 96.6429H147.143V98.7857H145V96.6429Z" fill="black"/>
<path d="M148.214 87H150.357V89.1429H148.214V87Z" fill="black"/>
<path d="M148.214 90.2143H150.357V92.3572H148.214V90.2143Z" fill="black"/>
<path d="M148.214 93.4286H150.357V95.5714H148.214V93.4286Z" fill="black"/>
<path d="M148.214 96.6429H150.357V98.7857H148.214V96.6429Z" fill="black"/>
<path d="M151.428 87H153.571V89.1429H151.428V87Z" fill="black"/>
<path d="M151.428 90.2143H153.571V92.3572H151.428V90.2143Z" fill="black"/>
<path d="M151.428 93.4286H153.571V95.5714H151.428V93.4286Z" fill="black"/>
<path d="M151.428 96.6429H153.571V98.7857H151.428V96.6429Z" fill="black"/>
<path d="M154.643 87H156.786V89.1429H154.643V87Z" fill="black"/>
<path d="M154.643 90.2143H156.786V92.3572H154.643V90.2143Z" fill="black"/>
<path d="M154.643 93.4286H156.786V95.5714H154.643V93.4286Z" fill="black"/>
<path d="M154.643 96.6429H156.786V98.7857H154.643V96.6429Z" fill="black"/>
<path d="M145 99.8571H147.143V102H145V99.8571Z" fill="black"/>
<path d="M148.214 99.8571H150.357V102H148.214V99.8571Z" fill="black"/>
<path d="M151.428 99.8571H153.571V102H151.428V99.8571Z" fill="black"/>
<path d="M154.643 99.8571H156.786V102H154.643V99.8571Z" fill="black"/>
<path d="M157.857 87H160V89.1429H157.857V87Z" fill="black"/>
<path d="M157.857 90.2143H160V92.3572H157.857V90.2143Z" fill="black"/>
<path d="M157.857 93.4286H160V95.5714H157.857V93.4286Z" fill="black"/>
<path d="M157.857 96.6429H160V98.7857H157.857V96.6429Z" fill="black"/>
<path d="M157.857 99.8571H160V102H157.857V99.8571Z" fill="black"/>
<path d="M174 87H175.7V88.7H174V87Z" fill="black"/>
<path d="M174 89.7H175.7V91.4H174V89.7Z" fill="black"/>
<path d="M174 92.4H175.7V94.1H174V92.4Z" fill="black"/>
<path d="M174 95.1H175.7V96.8H174V95.1Z" fill="black"/>
<path d="M176.7 87H178.4V88.7H176.7V87Z" fill="black"/>
<path d="M176.7 89.7H178.4V91.4H176.7V89.7Z" fill="black"/>
<path d="M176.7 92.4H178.4V94.1H176.7V92.4Z" fill="black"/>
<path d="M176.7 95.1H178.4V96.8H176.7V95.1Z" fill="black"/>
<path d="M179.4 87H181.1V88.7H179.4V87Z" fill="black"/>
<path d="M179.4 89.7H181.1V91.4H179.4V89.7Z" fill="black"/>
<path d="M179.4 92.4H181.1V94.1H179.4V92.4Z" fill="black"/>
<path d="M179.4 95.1H181.1V96.8H179.4V95.1Z" fill="black"/>
<path d="M182.1 87H183.8V88.7H182.1V87Z" fill="black"/>
<path d="M182.1 89.7H183.8V91.4H182.1V89.7Z" fill="black"/>
<path d="M182.1 92.4H183.8V94.1H182.1V92.4Z" fill="black"/>
<path d="M182.1 95.1H183.8V96.8H182.1V95.1Z" fill="black"/>
<path d="M174 97.8H175.7V99.5H174V97.8Z" fill="black"/>
<path d="M176.7 97.8H178.4V99.5H176.7V97.8Z" fill="black"/>
<path d="M179.4 97.8H181.1V99.5H179.4V97.8Z" fill="black"/>
<path d="M182.1 97.8H183.8V99.5H182.1V97.8Z" fill="black"/>
<path d="M184.8 87H186.5V88.7H184.8V87Z" fill="black"/>
<path d="M184.8 89.7H186.5V91.4H184.8V89.7Z" fill="black"/>
<path d="M184.8 92.4H186.5V94.1H184.8V92.4Z" fill="black"/>
<path d="M184.8 95.1H186.5V96.8H184.8V95.1Z" fill="black"/>
<path d="M184.8 97.8H186.5V99.5H184.8V97.8Z" fill="black"/>
<path d="M187.5 87H189.2V88.7H187.5V87Z" fill="black"/>
<path d="M187.5 89.7H189.2V91.4H187.5V89.7Z" fill="black"/>
<path d="M187.5 92.4H189.2V94.1H187.5V92.4Z" fill="black"/>
<path d="M187.5 95.1H189.2V96.8H187.5V95.1Z" fill="black"/>
<path d="M187.5 97.8H189.2V99.5H187.5V97.8Z" fill="black"/>
<path d="M174 100.5H175.7V102.2H174V100.5Z" fill="black"/>
<path d="M176.7 100.5H178.4V102.2H176.7V100.5Z" fill="black"/>
<path d="M179.4 100.5H181.1V102.2H179.4V100.5Z" fill="black"/>
<path d="M182.1 100.5H183.8V102.2H182.1V100.5Z" fill="black"/>
<path d="M184.8 100.5H186.5V102.2H184.8V100.5Z" fill="black"/>
<path d="M187.5 100.5H189.2V102.2H187.5V100.5Z" fill="black"/>
</g>
<g clip-path="url(#clip1)">
<path d="M0 67H15V70.2215H0V67Z" fill="#C4C4C4"/>
<path d="M0 72.8892H15V76.1107H0V72.8892Z" fill="#C4C4C4"/>
<path d="M0 78.7785H15V82H0V78.7785Z" fill="#C4C4C4"/>
<path d="M29 67H44V73H29V67Z" fill="#C4C4C4"/>
<path d="M29 76H44V82H29V76Z" fill="#C4C4C4"/>
<path d="M58 67H64V72.8572H58V67Z" fill="#C4C4C4"/>
<path d="M58 76.1429H64V82H58V76.1429Z" fill="#C4C4C4"/>
<path d="M67 67H73V72.8572H67V67Z" fill="#C4C4C4"/>
<path d="M67 76.1429H73V82H67V76.1429Z" fill="#C4C4C4"/>
<path d="M87 67H91.3548V71.3548H87V67Z" fill="#C4C4C4"/>
<path d="M87 72.3226H91.3548V76.6774H87V72.3226Z" fill="#C4C4C4"/>
<path d="M87 77.6451H91.3548V82H87V77.6451Z" fill="#C4C4C4"/>
<path d="M92.3225 67H96.6773V71.3548H92.3225V67Z" fill="#C4C4C4"/>
<path d="M92.3225 72.3226H96.6773V76.6774H92.3225V72.3226Z" fill="#C4C4C4"/>
<path d="M92.3225 77.6451H96.6773V82H92.3225V77.6451Z" fill="#C4C4C4"/>
<path d="M97.6453 67H102V71.3548H97.6453V67Z" fill="#C4C4C4"/>
<path d="M97.6453 72.3226H102V76.6774H97.6453V72.3226Z" fill="#C4C4C4"/>
<path d="M97.6453 77.6451H102V82H97.6453V77.6451Z" fill="#C4C4C4"/>
<path d="M116 67H118.848V69.8481H116V67Z" fill="#C4C4C4"/>
<path d="M116 71.0507H118.848V73.8988H116V71.0507Z" fill="#C4C4C4"/>
<path d="M116 75.1013H118.848V77.9494H116V75.1013Z" fill="#C4C4C4"/>
<path d="M116 79.1519H118.848V82H116V79.1519Z" fill="#C4C4C4"/>
<path d="M120.051 67H122.899V69.8481H120.051V67Z" fill="#C4C4C4"/>
<path d="M120.051 71.0507H122.899V73.8988H120.051V71.0507Z" fill="#C4C4C4"/>
<path d="M120.051 75.1013H122.899V77.9494H120.051V75.1013Z" fill="#C4C4C4"/>
<path d="M120.051 79.1519H122.899V82H120.051V79.1519Z" fill="#C4C4C4"/>
<path d="M124.101 67H126.949V69.8481H124.101V67Z" fill="#C4C4C4"/>
<path d="M124.101 71.0507H126.949V73.8988H124.101V71.0507Z" fill="#C4C4C4"/>
<path d="M124.101 75.1013H126.949V77.9494H124.101V75.1013Z" fill="#C4C4C4"/>
<path d="M124.101 79.1519H126.949V82H124.101V79.1519Z" fill="#C4C4C4"/>
<path d="M128.152 67H131V69.8481H128.152V67Z" fill="#C4C4C4"/>
<path d="M128.152 71.0507H131V73.8988H128.152V71.0507Z" fill="#C4C4C4"/>
<path d="M128.152 75.1013H131V77.9494H128.152V75.1013Z" fill="#C4C4C4"/>
<path d="M128.152 79.1519H131V82H128.152V79.1519Z" fill="#C4C4C4"/>
<path d="M145 67H147.143V69.1429H145V67Z" fill="#C4C4C4"/>
<path d="M145 70.2143H147.143V72.3572H145V70.2143Z" fill="#C4C4C4"/>
<path d="M145 73.4286H147.143V75.5714H145V73.4286Z" fill="#C4C4C4"/>
<path d="M145 76.6429H147.143V78.7857H145V76.6429Z" fill="#C4C4C4"/>
<path d="M148.214 67H150.357V69.1429H148.214V67Z" fill="#C4C4C4"/>
<path d="M148.214 70.2143H150.357V72.3572H148.214V70.2143Z" fill="#C4C4C4"/>
<path d="M148.214 73.4286H150.357V75.5714H148.214V73.4286Z" fill="#C4C4C4"/>
<path d="M148.214 76.6429H150.357V78.7857H148.214V76.6429Z" fill="#C4C4C4"/>
<path d="M151.428 67H153.571V69.1429H151.428V67Z" fill="#C4C4C4"/>
<path d="M151.428 70.2143H153.571V72.3572H151.428V70.2143Z" fill="#C4C4C4"/>
<path d="M151.428 73.4286H153.571V75.5714H151.428V73.4286Z" fill="#C4C4C4"/>
<path d="M151.428 76.6429H153.571V78.7857H151.428V76.6429Z" fill="#C4C4C4"/>
<path d="M154.643 67H156.786V69.1429H154.643V67Z" fill="#C4C4C4"/>
<path d="M154.643 70.2143H156.786V72.3572H154.643V70.2143Z" fill="#C4C4C4"/>
<path d="M154.643 73.4286H156.786V75.5714H154.643V73.4286Z" fill="#C4C4C4"/>
<path d="M154.643 76.6429H156.786V78.7857H154.643V76.6429Z" fill="#C4C4C4"/>
<path d="M145 79.8571H147.143V82H145V79.8571Z" fill="#C4C4C4"/>
<path d="M148.214 79.8571H150.357V82H148.214V79.8571Z" fill="#C4C4C4"/>
<path d="M151.428 79.8571H153.571V82H151.428V79.8571Z" fill="#C4C4C4"/>
<path d="M154.643 79.8571H156.786V82H154.643V79.8571Z" fill="#C4C4C4"/>
<path d="M157.857 67H160V69.1429H157.857V67Z" fill="#C4C4C4"/>
<path d="M157.857 70.2143H160V72.3572H157.857V70.2143Z" fill="#C4C4C4"/>
<path d="M157.857 73.4286H160V75.5714H157.857V73.4286Z" fill="#C4C4C4"/>
<path d="M157.857 76.6429H160V78.7857H157.857V76.6429Z" fill="#C4C4C4"/>
<path d="M157.857 79.8571H160V82H157.857V79.8571Z" fill="#C4C4C4"/>
<path d="M145 67H147.143V69.1429H145V67Z" fill="#C4C4C4"/>
<path d="M145 70.2143H147.143V72.3572H145V70.2143Z" fill="#C4C4C4"/>
<path d="M145 73.4286H147.143V75.5714H145V73.4286Z" fill="#C4C4C4"/>
<path d="M145 76.6429H147.143V78.7857H145V76.6429Z" fill="#C4C4C4"/>
<path d="M148.214 67H150.357V69.1429H148.214V67Z" fill="#C4C4C4"/>
<path d="M148.214 70.2143H150.357V72.3572H148.214V70.2143Z" fill="#C4C4C4"/>
<path d="M148.214 73.4286H150.357V75.5714H148.214V73.4286Z" fill="#C4C4C4"/>
<path d="M148.214 76.6429H150.357V78.7857H148.214V76.6429Z" fill="#C4C4C4"/>
<path d="M151.428 67H153.571V69.1429H151.428V67Z" fill="#C4C4C4"/>
<path d="M151.428 70.2143H153.571V72.3572H151.428V70.2143Z" fill="#C4C4C4"/>
<path d="M151.428 73.4286H153.571V75.5714H151.428V73.4286Z" fill="#C4C4C4"/>
<path d="M151.428 76.6429H153.571V78.7857H151.428V76.6429Z" fill="#C4C4C4"/>
<path d="M154.643 67H156.786V69.1429H154.643V67Z" fill="#C4C4C4"/>
<path d="M154.643 70.2143H156.786V72.3572H154.643V70.2143Z" fill="#C4C4C4"/>
<path d="M154.643 73.4286H156.786V75.5714H154.643V73.4286Z" fill="#C4C4C4"/>
<path d="M154.643 76.6429H156.786V78.7857H154.643V76.6429Z" fill="#C4C4C4"/>
<path d="M145 79.8571H147.143V82H145V79.8571Z" fill="#C4C4C4"/>
<path d="M148.214 79.8571H150.357V82H148.214V79.8571Z" fill="#C4C4C4"/>
<path d="M151.428 79.8571H153.571V82H151.428V79.8571Z" fill="#C4C4C4"/>
<path d="M154.643 79.8571H156.786V82H154.643V79.8571Z" fill="#C4C4C4"/>
<path d="M157.857 67H160V69.1429H157.857V67Z" fill="#C4C4C4"/>
<path d="M157.857 70.2143H160V72.3572H157.857V70.2143Z" fill="#C4C4C4"/>
<path d="M157.857 73.4286H160V75.5714H157.857V73.4286Z" fill="#C4C4C4"/>
<path d="M157.857 76.6429H160V78.7857H157.857V76.6429Z" fill="#C4C4C4"/>
<path d="M157.857 79.8571H160V82H157.857V79.8571Z" fill="#C4C4C4"/>
<path d="M174 67H175.7V68.7H174V67Z" fill="#C4C4C4"/>
<path d="M174 69.7H175.7V71.4H174V69.7Z" fill="#C4C4C4"/>
<path d="M174 72.4H175.7V74.1H174V72.4Z" fill="#C4C4C4"/>
<path d="M174 75.1H175.7V76.8H174V75.1Z" fill="#C4C4C4"/>
<path d="M176.7 67H178.4V68.7H176.7V67Z" fill="#C4C4C4"/>
<path d="M176.7 69.7H178.4V71.4H176.7V69.7Z" fill="#C4C4C4"/>
<path d="M176.7 72.4H178.4V74.1H176.7V72.4Z" fill="#C4C4C4"/>
<path d="M176.7 75.1H178.4V76.8H176.7V75.1Z" fill="#C4C4C4"/>
<path d="M179.4 67H181.1V68.7H179.4V67Z" fill="#C4C4C4"/>
<path d="M179.4 69.7H181.1V71.4H179.4V69.7Z" fill="#C4C4C4"/>
<path d="M179.4 72.4H181.1V74.1H179.4V72.4Z" fill="#C4C4C4"/>
<path d="M179.4 75.1H181.1V76.8H179.4V75.1Z" fill="#C4C4C4"/>
<path d="M182.1 67H183.8V68.7H182.1V67Z" fill="#C4C4C4"/>
<path d="M182.1 69.7H183.8V71.4H182.1V69.7Z" fill="#C4C4C4"/>
<path d="M182.1 72.4H183.8V74.1H182.1V72.4Z" fill="#C4C4C4"/>
<path d="M182.1 75.1H183.8V76.8H182.1V75.1Z" fill="#C4C4C4"/>
<path d="M174 77.8H175.7V79.5H174V77.8Z" fill="#C4C4C4"/>
<path d="M176.7 77.8H178.4V79.5H176.7V77.8Z" fill="#C4C4C4"/>
<path d="M179.4 77.8H181.1V79.5H179.4V77.8Z" fill="#C4C4C4"/>
<path d="M182.1 77.8H183.8V79.5H182.1V77.8Z" fill="#C4C4C4"/>
<path d="M184.8 67H186.5V68.7H184.8V67Z" fill="#C4C4C4"/>
<path d="M184.8 69.7H186.5V71.4H184.8V69.7Z" fill="#C4C4C4"/>
<path d="M184.8 72.4H186.5V74.1H184.8V72.4Z" fill="#C4C4C4"/>
<path d="M184.8 75.1H186.5V76.8H184.8V75.1Z" fill="#C4C4C4"/>
<path d="M184.8 77.8H186.5V79.5H184.8V77.8Z" fill="#C4C4C4"/>
<path d="M187.5 67H189.2V68.7H187.5V67Z" fill="#C4C4C4"/>
<path d="M187.5 69.7H189.2V71.4H187.5V69.7Z" fill="#C4C4C4"/>
<path d="M187.5 72.4H189.2V74.1H187.5V72.4Z" fill="#C4C4C4"/>
<path d="M187.5 75.1H189.2V76.8H187.5V75.1Z" fill="#C4C4C4"/>
<path d="M187.5 77.8H189.2V79.5H187.5V77.8Z" fill="#C4C4C4"/>
<path d="M174 80.5001H175.7V82.2001H174V80.5001Z" fill="#C4C4C4"/>
<path d="M176.7 80.5001H178.4V82.2001H176.7V80.5001Z" fill="#C4C4C4"/>
<path d="M179.4 80.5001H181.1V82.2001H179.4V80.5001Z" fill="#C4C4C4"/>
<path d="M182.1 80.5001H183.8V82.2001H182.1V80.5001Z" fill="#C4C4C4"/>
<path d="M184.8 80.5001H186.5V82.2001H184.8V80.5001Z" fill="#C4C4C4"/>
<path d="M187.5 80.5001H189.2V82.2001H187.5V80.5001Z" fill="#C4C4C4"/>
</g>
<path d="M58 0C48.0742 0 40 8.07497 40 18C40 27.925 48.0742 36 58 36C67.9258 36 76 27.925 76 18C76 8.07497 67.9258 0 58 0ZM58 34.5C48.9018 34.5 41.5 27.0982 41.5 18C41.5 8.90184 48.9018 1.49998 58 1.49998C67.0982 1.49998 74.5 8.90184 74.5 18C74.5 27.0982 67.0982 34.5 58 34.5Z" fill="black"/>
<path d="M65.1558 17.3694L54.6558 10.6194C54.4258 10.4693 54.1285 10.4612 53.8911 10.5916C53.6494 10.7234 53.5 10.9754 53.5 11.25V24.75C53.5 25.0247 53.6494 25.2767 53.8911 25.4085C54.0025 25.4693 54.127 25.5001 54.25 25.5001C54.3906 25.5001 54.5328 25.4605 54.6558 25.3807L65.1558 18.6307C65.3697 18.493 65.5 18.2549 65.5 18C65.5 17.7452 65.3697 17.5072 65.1558 17.3694ZM55 23.376V12.6241L63.3628 18L55 23.376Z" fill="black"/>
<g clip-path="url(#clip2)">
<path d="M7.45204 30.6668C6.75053 30.1022 6.09114 29.4748 5.49193 28.8021C5.23199 28.5105 4.78544 28.485 4.49448 28.7444C4.20297 29.0039 4.1773 29.4505 4.43669 29.7418C5.08764 30.4727 5.80412 31.1542 6.5661 31.7675C6.69667 31.8725 6.85311 31.9236 7.0085 31.9236C7.21515 31.9236 7.4199 31.8334 7.5594 31.6601C7.80409 31.3561 7.75593 30.9114 7.45204 30.6668Z" fill="black"/>
<path d="M12.1544 33.3035C11.3075 33.0004 10.4792 32.6231 9.69286 32.1819C9.3524 31.9911 8.92202 32.1124 8.73112 32.4525C8.54015 32.7928 8.6613 33.2234 9.00154 33.4144C9.85668 33.894 10.757 34.3043 11.6779 34.634C11.7567 34.6621 11.8371 34.6755 11.9161 34.6755C12.2061 34.6755 12.4779 34.4956 12.5812 34.2069C12.7128 33.8395 12.5215 33.4351 12.1544 33.3035Z" fill="black"/>
<path d="M3.86681 26.6405C3.38714 25.8779 2.96871 25.0705 2.6232 24.2407C2.47329 23.8807 2.0595 23.7102 1.69957 23.8601C1.33929 24.01 1.16885 24.4236 1.3189 24.7839C1.69437 25.6861 2.14922 26.5638 2.6708 27.3928C2.80503 27.6063 3.0346 27.7232 3.26944 27.7232C3.3979 27.7232 3.52819 27.6882 3.64491 27.6147C3.97531 27.4069 4.07466 26.9708 3.86681 26.6405Z" fill="black"/>
<path d="M1.4862 12.7573C1.11017 12.6526 0.720566 12.8723 0.615871 13.2481C0.353676 14.1891 0.168613 15.1611 0.0661678 16.1371C0.0254569 16.5251 0.307129 16.8727 0.695043 16.9134C0.720215 16.9161 0.745035 16.9174 0.769715 16.9174C1.12676 16.9174 1.43339 16.6475 1.4715 16.2846C1.56565 15.3869 1.73574 14.493 1.97705 13.6276C2.08182 13.2517 1.86202 12.8621 1.4862 12.7573Z" fill="black"/>
<path d="M1.79737 21.6667C1.59571 20.792 1.46605 19.8916 1.41184 18.9904C1.38836 18.6009 1.0555 18.3052 0.664139 18.3276C0.274678 18.3511 -0.0221817 18.6858 0.00130267 19.0752C0.0602949 20.0546 0.201412 21.0332 0.420576 21.9841C0.49581 22.311 0.786623 22.5321 1.1083 22.5321C1.1609 22.5321 1.2144 22.5261 1.26763 22.5139C1.64781 22.4262 1.88497 22.047 1.79737 21.6667Z" fill="black"/>
<path d="M32.1891 26.7265C31.8632 26.5117 31.4252 26.6022 31.2104 26.9279C30.7156 27.6793 30.1535 28.3952 29.54 29.0559C29.2743 29.3417 29.2909 29.7887 29.5769 30.0542C29.7128 30.1806 29.8853 30.2431 30.0574 30.2431C30.2469 30.2431 30.436 30.1673 30.5752 30.0174C31.2418 29.2996 31.8525 28.5217 32.3905 27.7051C32.6052 27.3793 32.5149 26.9412 32.1891 26.7265Z" fill="black"/>
<path d="M17.4598 34.2487C16.556 34.2394 15.6499 34.155 14.7668 33.9981C14.3813 33.9293 14.0158 34.1858 13.9475 34.5701C13.8793 34.9543 14.1353 35.3211 14.5195 35.3894C15.4792 35.5599 16.4635 35.6515 17.4452 35.6617C17.4476 35.6617 17.4501 35.6617 17.4526 35.6617C17.8393 35.6617 18.155 35.3502 18.1589 34.9626C18.163 34.5723 17.85 34.2527 17.4598 34.2487Z" fill="black"/>
<path d="M28.532 31.0073C28.2936 30.6982 27.8503 30.6407 27.5413 30.879C26.8274 31.4291 26.0631 31.9228 25.2692 32.3465C24.9251 32.5301 24.7949 32.9582 24.9786 33.3024C25.1059 33.5407 25.3501 33.6764 25.6026 33.6764C25.7148 33.6764 25.8286 33.6496 25.9346 33.5931C26.7974 33.1326 27.628 32.596 28.4037 31.9983C28.7128 31.7601 28.7702 31.3164 28.532 31.0073Z" fill="black"/>
<path d="M23.68 33.8612C23.5563 33.4912 23.1551 33.2918 22.786 33.4152C21.9331 33.7002 21.0492 33.9152 20.1586 34.0543C19.7731 34.1144 19.5094 34.4757 19.5696 34.8613C19.6241 35.2099 19.9245 35.4589 20.2667 35.4589C20.303 35.4589 20.3397 35.4561 20.3766 35.4504C21.3449 35.2992 22.3064 35.0653 23.2338 34.7553C23.604 34.6316 23.8037 34.2313 23.68 33.8612Z" fill="black"/>
<path d="M35.4763 6.7707C35.0994 6.66987 34.7121 6.89332 34.6111 7.27027L33.7009 10.6669C30.8549 4.42507 24.6012 0.33844 17.6314 0.33844C11.0847 0.33844 5.106 3.9319 2.02877 9.71665C1.84539 10.0611 1.97618 10.4888 2.32064 10.6721C2.66559 10.8556 3.09316 10.7247 3.27618 10.3802C6.1076 5.05774 11.6082 1.75137 17.6315 1.75137C24.2719 1.75137 30.206 5.78295 32.683 11.8733L28.5544 10.767C28.1775 10.6658 27.7901 10.8897 27.6892 11.2666C27.5881 11.6435 27.8118 12.0308 28.1887 12.1319L33.6479 13.5947C33.7091 13.611 33.7707 13.6189 33.8313 13.6189C34.1431 13.6189 34.4286 13.4107 34.5131 13.0951L35.9759 7.63589C36.0769 7.25902 35.8532 6.87167 35.4763 6.7707Z" fill="black"/>
</g>
<path d="M10.8503 23.3432C9.87745 23.3432 8.97934 22.7752 8.56239 21.8957C8.42894 21.6151 8.54868 21.2794 8.82937 21.1465C9.11118 21.0135 9.44573 21.1333 9.57862 21.4135C9.81044 21.9024 10.3097 22.2182 10.8503 22.2182C11.6259 22.2182 12.2565 21.5876 12.2565 20.812C12.2565 20.0363 11.6259 19.4057 10.8503 19.4057C10.5394 19.4057 10.2878 19.1541 10.2878 18.8432C10.2878 18.5323 10.5394 18.2807 10.8503 18.2807C12.2461 18.2807 13.3815 19.4161 13.3815 20.812C13.3815 22.2078 12.2461 23.3432 10.8503 23.3432Z" fill="black"/>
<path d="M22.1003 23.3433C20.7045 23.3433 19.5691 22.2079 19.5691 20.812V18.8433C19.5691 18.5323 19.8207 18.2808 20.1316 18.2808C20.4425 18.2808 20.6941 18.5323 20.6941 18.8433V20.812C20.6941 21.5876 21.3247 22.2183 22.1003 22.2183C22.876 22.2183 23.5066 21.5876 23.5066 20.812V18.8433C23.5066 18.5323 23.7582 18.2808 24.0691 18.2808C24.38 18.2808 24.6316 18.5323 24.6316 18.8433V20.812C24.6316 22.2079 23.4962 23.3433 22.1003 23.3433Z" fill="black"/>
<path d="M16.4753 18.2808C15.9447 18.2808 15.4529 18.4463 15.0455 18.7264C14.9903 18.4736 14.776 18.2808 14.5066 18.2808C14.1957 18.2808 13.9441 18.5323 13.9441 18.8433V20.812C13.9441 22.2079 15.0795 23.3433 16.4753 23.3433C17.8712 23.3433 19.0066 22.2079 19.0066 20.812C19.0066 19.4162 17.8712 18.2808 16.4753 18.2808ZM16.4753 22.2183C15.6997 22.2183 15.0691 21.5876 15.0691 20.812C15.0691 20.0364 15.6997 19.4058 16.4753 19.4058C17.251 19.4058 17.8816 20.0364 17.8816 20.812C17.8816 21.5876 17.251 22.2183 16.4753 22.2183Z" fill="black"/>
<path d="M22.1003 23.3438C20.7045 23.3438 19.5691 22.2083 19.5691 20.8125V18C19.5691 16.6042 20.7045 15.4688 22.1003 15.4688C23.4962 15.4688 24.6316 16.6042 24.6316 18V20.8125C24.6316 22.2083 23.4962 23.3438 22.1003 23.3438ZM22.1003 16.5938C21.3247 16.5938 20.6941 17.2244 20.6941 18V20.8125C20.6941 21.5881 21.3247 22.2188 22.1003 22.2188C22.876 22.2188 23.5066 21.5881 23.5066 20.8125V18C23.5066 17.2244 22.876 16.5938 22.1003 16.5938Z" fill="black"/>
<path d="M16.4753 18.2812C15.9552 18.2812 15.4717 18.4397 15.0691 18.7097V18C15.0691 17.2244 15.6997 16.5938 16.4753 16.5938C16.8461 16.5938 17.196 16.7366 17.4603 16.9964C17.6822 17.214 18.0382 17.2112 18.2557 16.9898C18.4738 16.7685 18.4705 16.4119 18.2491 16.1944C17.7729 15.7264 17.1433 15.4688 16.4753 15.4688C15.0795 15.4688 13.9441 16.6042 13.9441 18V20.8125C13.9441 22.2083 15.0795 23.3438 16.4753 23.3438C17.8712 23.3438 19.0066 22.2083 19.0066 20.8125C19.0066 19.4167 17.8712 18.2812 16.4753 18.2812ZM16.4753 22.2188C15.6997 22.2188 15.0691 21.5881 15.0691 20.8125C15.0691 20.0369 15.6997 19.4062 16.4753 19.4062C17.251 19.4062 17.8816 20.0369 17.8816 20.8125C17.8816 21.5881 17.251 22.2188 16.4753 22.2188Z" fill="black"/>
<path d="M10.8504 19.4072C10.5395 19.4072 10.2879 19.1556 10.2879 18.8447C10.2879 18.5337 10.5395 18.2822 10.8504 18.2822C11.3156 18.2822 11.6941 17.9037 11.6941 17.4384C11.6941 16.9731 11.3156 16.5947 10.8504 16.5947C10.6658 16.5947 10.4912 16.6529 10.345 16.7628C10.0961 16.9506 9.74401 16.8995 9.55726 16.6518C9.37051 16.4035 9.41994 16.0509 9.66822 15.8641C10.011 15.6059 10.4197 15.4697 10.8504 15.4697C11.9359 15.4697 12.8191 16.3531 12.8191 17.4385C12.8191 18.5239 11.9359 19.4072 10.8504 19.4072Z" fill="black"/>
<path d="M25.7566 15.5312C25.1022 15.5312 24.5691 14.9981 24.5691 14.3438C24.5691 13.6894 25.1022 13.1562 25.7566 13.1562C26.411 13.1562 26.9441 13.6894 26.9441 14.3438C26.9441 14.9981 26.411 15.5312 25.7566 15.5312ZM25.7566 13.2812C25.1701 13.2812 24.6941 13.7572 24.6941 14.3438C24.6941 14.9303 25.1701 15.4062 25.7566 15.4062C26.3431 15.4062 26.8191 14.9303 26.8191 14.3438C26.8191 13.7572 26.3431 13.2812 25.7566 13.2812Z" fill="black" stroke="black"/>
<path fill-rule="evenodd" clip-rule="evenodd" d="M10.0153 51.6647L7.35057 49L6 50.3506L10.0153 54.3659L14.0306 50.3506L12.68 49L10.0153 51.6647Z" fill="#808080"/>
<path fill-rule="evenodd" clip-rule="evenodd" d="M35 43.0016L28.556 50.4346L25 46.3185L26.3609 44.7542L28.5584 47.2979L33.6415 41.4346L35 43.0016Z" fill="white"/>
<defs>
<clipPath id="clip0">
<rect width="189" height="15" fill="white" transform="translate(0 87)"/>
</clipPath>
<clipPath id="clip1">
<rect width="189" height="15" fill="white" transform="translate(0 67)"/>
</clipPath>
<clipPath id="clip2">
<rect width="36" height="36" fill="white"/>
</clipPath>
</defs>
</svg>
